<svg width="16" height="16" viewBox="0 0 16 16" fill="none" xmlns="http://www.w3.org/2000/svg">
<path fill-rule="evenodd" clip-rule="evenodd" d="M4.5 0.119995C2.29086 0.119995 0.5 1.91086 0.5 4.11999V11.12C0.5 13.1224 1.97143 14.7812 3.89204 15.0741V9.71312H12.0034V15.0886C13.9749 14.8411 15.5 13.1586 15.5 11.12V4.12C15.5 1.91086 13.7091 0.119995 11.5 0.119995H4.5ZM5.43407 7.98814C5.97422 7.98814 6.43595 7.80518 6.81928 7.43928C7.20261 7.05595 7.39428 6.59421 7.39428 6.05407C7.39428 5.51392 7.20261 5.06089 6.81928 4.69499C6.43595 4.31166 5.97422 4.12 5.43407 4.12C4.89392 4.12 4.43219 4.31166 4.04886 4.69499C3.68295 5.06089 3.5 5.51392 3.5 6.05407C3.5 6.59421 3.68295 7.05595 4.04886 7.43928C4.43219 7.80518 4.89392 7.98814 5.43407 7.98814ZM11.925 7.43928C11.5417 7.80518 11.0799 7.98814 10.5398 7.98814C9.99964 7.98814 9.53791 7.80518 9.15458 7.43928C8.78867 7.05595 8.60572 6.59421 8.60572 6.05407C8.60572 5.51392 8.78867 5.06089 9.15458 4.69499C9.53791 4.31166 9.99964 4.12 10.5398 4.12C11.0799 4.12 11.5417 4.31166 11.925 4.69499C12.3083 5.06089 12.5 5.51392 12.5 6.05407C12.5 6.59421 12.3083 7.05595 11.925 7.43928Z" fill="white"/>
</svg>
