<svg width="88" height="17" viewBox="0 0 88 17" fill="none" xmlns="http://www.w3.org/2000/svg">
<path d="M80.983 16.368V4.708H83.513V6.622C83.8796 5.88867 84.4443 5.33867 85.207 4.972C85.9696 4.59067 86.901 4.488 88.001 4.664V7.348C86.813 6.98133 85.7643 7.09867 84.855 7.7C83.9603 8.30133 83.513 9.218 83.513 10.45V16.368H80.983Z" fill="black"/>
<path d="M73.1322 16.544C71.4602 16.544 70.0449 15.9573 68.8862 14.784C67.7275 13.596 67.1482 12.1733 67.1482 10.516C67.1482 8.844 67.7349 7.42867 68.9082 6.27C70.0815 5.09667 71.4895 4.51 73.1322 4.51C74.5842 4.51 75.8602 4.98667 76.9602 5.94C78.0749 6.87867 78.7569 8.05933 79.0062 9.482C79.1529 10.1713 79.1602 10.8313 79.0282 11.462H69.6562C69.8029 12.3273 70.1989 13.0167 70.8442 13.53C71.4895 14.0287 72.2522 14.278 73.1322 14.278C74.4815 14.278 75.5595 13.8013 76.3662 12.848L78.6102 13.442C78.1409 14.3807 77.3929 15.136 76.3662 15.708C75.3395 16.2653 74.2615 16.544 73.1322 16.544ZM69.6562 9.504H76.5422C76.3955 8.72667 76.0069 8.074 75.3762 7.546C74.7602 7.018 74.0049 6.754 73.1102 6.754C72.2155 6.754 71.4529 7.02533 70.8222 7.568C70.1915 8.096 69.8029 8.74133 69.6562 9.504Z" fill="black"/>
<path d="M55.0966 16.368L58.8806 10.538L55.0966 4.708H57.8906L60.8606 9.152L63.8306 4.708H66.6246L62.8406 10.538L66.6246 16.368H63.8306L60.8606 11.902L57.8906 16.368H55.0966Z" fill="black"/>
<path d="M47.6132 3.256C48.0678 3.256 48.4565 3.102 48.7792 2.794C49.1018 2.47133 49.2632 2.08267 49.2632 1.628C49.2632 1.17333 49.1018 0.792 48.7792 0.483999C48.4565 0.161333 48.0678 0 47.6132 0C47.1585 0 46.7698 0.161333 46.4472 0.483999C46.1392 0.792 45.9852 1.17333 45.9852 1.628C45.9852 2.08267 46.1392 2.47133 46.4472 2.794C46.7698 3.102 47.1585 3.256 47.6132 3.256Z" fill="black"/>
<path d="M46.3152 4.708V16.368H53.1429V4.708H46.3152Z" fill="black"/>
<path d="M51.9109 3.256C52.3656 3.256 52.7542 3.102 53.0769 2.794C53.3996 2.47133 53.5609 2.08267 53.5609 1.628C53.5609 1.17333 53.3996 0.792 53.0769 0.483999C52.7542 0.161333 52.3656 0 51.9109 0C51.4562 0 51.0676 0.161333 50.7449 0.483999C50.4369 0.792 50.2829 1.17333 50.2829 1.628C50.2829 2.08267 50.4369 2.47133 50.7449 2.794C51.0676 3.102 51.4562 3.256 51.9109 3.256Z" fill="black"/>
<path d="M32.7853 16.368V4.708H35.3153V6.248C36.21 5.08933 37.42 4.51 38.9453 4.51C40.28 4.51 41.424 4.94267 42.3773 5.808C43.3453 6.65867 43.8293 7.79533 43.8293 9.218V16.368H41.2993V9.9C41.2993 8.96133 41.0206 8.22067 40.4633 7.678C39.9206 7.13533 39.2533 6.864 38.4613 6.864C37.5373 6.864 36.782 7.20133 36.1953 7.876C35.6086 8.536 35.3153 9.36467 35.3153 10.362V16.368H32.7853Z" fill="black"/>
<path d="M23.8913 16.544C23.3779 16.544 22.8793 16.4853 22.3953 16.368C21.9259 16.2507 21.4713 16.0673 21.0313 15.818C20.5913 15.554 20.2319 15.18 19.9533 14.696C19.6746 14.1973 19.5353 13.618 19.5353 12.958C19.5206 11.77 19.9313 10.868 20.7673 10.252C21.6033 9.62133 22.7986 9.306 24.3533 9.306H27.8953V8.602C27.8953 7.95667 27.6313 7.47267 27.1033 7.15C26.5753 6.81267 25.8933 6.644 25.0573 6.644C23.4586 6.644 22.5273 7.172 22.2633 8.228L19.8433 8.272C19.8726 7.11333 20.3786 6.19667 21.3613 5.522C22.3586 4.84733 23.5759 4.51 25.0133 4.51C26.4653 4.51 27.7046 4.862 28.7313 5.566C29.7726 6.27 30.2933 7.17933 30.2933 8.294V16.368H27.8953V14.608C27.5579 15.0773 27.0446 15.5173 26.3553 15.928C25.6806 16.3387 24.8593 16.544 23.8913 16.544ZM24.0893 14.454C25.0573 14.454 25.9299 14.124 26.7073 13.464C27.4993 12.804 27.8953 12.0267 27.8953 11.132H24.7933C23.8399 11.132 23.1286 11.3153 22.6593 11.682C22.2046 12.034 22.0066 12.4813 22.0653 13.024C22.1093 13.5227 22.3293 13.8893 22.7253 14.124C23.1213 14.344 23.5759 14.454 24.0893 14.454Z" fill="black"/>
<path d="M-0.000946045 16.368V0.967999H4.33305L8.64505 14.674L12.9791 0.967999H17.3351V16.368H14.8051V3.102L10.6251 16.368H6.66505L2.52905 3.19V16.368H-0.000946045Z" fill="black"/>
</svg>
